<svg xmlns="http://www.w3.org/2000/svg" width="768" height="1024" viewBox="0 0 768 1024">
  <defs>
    <linearGradient id="bg" x1="0" y1="0" x2="0" y2="1"><stop stop-color="#111936"/><stop offset="1" stop-color="#050914"/></linearGradient>
    <radialGradient id="cyan"><stop stop-color="#0891b2" stop-opacity=".25"/><stop offset="1" stop-color="#0f172a" stop-opacity="0"/></radialGradient>
    <radialGradient id="violet"><stop stop-color="#7c3aed" stop-opacity=".22"/><stop offset="1" stop-color="#0f172a" stop-opacity="0"/></radialGradient>
  </defs>
  <rect width="768" height="1024" fill="url(#bg)"/><ellipse cx="120" cy="400" rx="360" ry="430" fill="url(#cyan)"/><ellipse cx="670" cy="650" rx="390" ry="450" fill="url(#violet)"/>
  <g fill="#fff" opacity=".5"><circle cx="72" cy="70" r="2"/><circle cx="690" cy="105" r="2"/><circle cx="105" cy="540" r="2"/><circle cx="650" cy="580" r="2"/><circle cx="55" cy="900" r="2"/><circle cx="710" cy="920" r="2"/></g>
  <circle cx="384" cy="520" r="170" fill="none" stroke="#48ff88" stroke-opacity=".35" stroke-width="15"/><circle cx="384" cy="520" r="75" fill="#48ff88"/><g stroke="#ff4f7b" stroke-width="12"><path d="M40 250L275 430"/><path d="M730 220L500 420"/><path d="M720 800L505 625"/></g><g stroke="#22e8ff" stroke-width="20" stroke-linecap="round"><path d="M240 390l80-80"/><path d="M500 350l80 80"/><path d="M500 670l90-55"/></g></svg>