<svg xmlns="http://www.w3.org/2000/svg" width="768" height="1024" viewBox="0 0 768 1024">
  <defs>
    <linearGradient id="bg" x1="0" y1="0" x2="0" y2="1"><stop stop-color="#111936"/><stop offset="1" stop-color="#050914"/></linearGradient>
    <radialGradient id="cyan"><stop stop-color="#0891b2" stop-opacity=".25"/><stop offset="1" stop-color="#0f172a" stop-opacity="0"/></radialGradient>
    <radialGradient id="violet"><stop stop-color="#7c3aed" stop-opacity=".22"/><stop offset="1" stop-color="#0f172a" stop-opacity="0"/></radialGradient>
  </defs>
  <rect width="768" height="1024" fill="url(#bg)"/><ellipse cx="120" cy="400" rx="360" ry="430" fill="url(#cyan)"/><ellipse cx="670" cy="650" rx="390" ry="450" fill="url(#violet)"/>
  <g fill="#fff" opacity=".5"><circle cx="72" cy="70" r="2"/><circle cx="690" cy="105" r="2"/><circle cx="105" cy="540" r="2"/><circle cx="650" cy="580" r="2"/><circle cx="55" cy="900" r="2"/><circle cx="710" cy="920" r="2"/></g>
  <rect x="280" y="380" width="210" height="210" rx="20" fill="#000" stroke="#8b5cf6" stroke-width="22"/><g><rect x="90" y="220" width="80" height="80" fill="#22e8ff"/><rect x="600" y="280" width="65" height="65" fill="#ff4fb8"/><rect x="560" y="760" width="95" height="95" fill="#ffe66d"/><rect x="140" y="700" width="55" height="55" fill="#48ff88"/></g><g fill="none" stroke="#a78bfa" stroke-width="10" stroke-dasharray="8 22"><path d="M130 260Q280 250 330 420"/><path d="M630 310Q520 320 465 420"/><path d="M610 805Q490 720 450 580"/></g></svg>